<?xml version="1.0" standalone="no"?>
<!DOCTYPE svg PUBLIC "-//W3C//DTD SVG 20010904//EN"
 "http://www.w3.org/TR/2001/REC-SVG-20010904/DTD/svg10.dtd">
<svg version="1.0" xmlns="http://www.w3.org/2000/svg"
 width="96.000000pt" height="96.000000pt" viewBox="0 0 96.000000 96.000000"
 preserveAspectRatio="xMidYMid meet">

<g transform="translate(0.000000,96.000000) scale(0.100000,-0.100000)"
fill="#000000" stroke="none">
<path d="M144 808 c4 -29 18 -181 31 -337 14 -157 27 -286 29 -289 3 -2 66
-22 140 -43 l136 -39 136 39 c74 21 137 41 140 43 2 3 15 132 29 289 13 156
27 308 31 337 l5 52 -341 0 -341 0 5 -52z m516 -148 l0 -40 -140 0 c-77 0
-140 -4 -140 -9 0 -5 3 -23 6 -40 l7 -31 128 0 129 0 0 -32 c0 -18 -3 -70 -7
-115 l-6 -82 -78 -26 -79 -27 -79 27 -79 26 -4 55 -3 55 40 -3 c32 -2 40 -7
45 -27 8 -33 67 -54 113 -39 42 14 44 16 52 66 l7 42 -130 0 -129 0 -7 92 c-3
50 -6 104 -6 120 l0 28 180 0 180 0 0 -40z"/>
</g>
</svg>
