<?xml version="1.0" standalone="no"?>
<!DOCTYPE svg PUBLIC "-//W3C//DTD SVG 20010904//EN"
 "http://www.w3.org/TR/2001/REC-SVG-20010904/DTD/svg10.dtd">
<svg version="1.0" xmlns="http://www.w3.org/2000/svg"
 width="96.000000pt" height="96.000000pt" viewBox="0 0 96.000000 96.000000"
 preserveAspectRatio="xMidYMid meet">

<g transform="translate(0.000000,96.000000) scale(0.100000,-0.100000)"
fill="#000000" stroke="none">
<path d="M120 480 l0 -360 360 0 360 0 0 360 0 360 -360 0 -360 0 0 -360z
m388 -96 c-3 -135 -3 -136 -31 -160 -41 -35 -97 -33 -139 6 l-33 30 23 20 c22
18 26 18 45 5 28 -19 53 -19 61 1 3 9 6 65 6 125 l0 109 36 0 36 0 -4 -136z
m206 115 c32 -25 32 -30 5 -48 -18 -10 -26 -10 -45 -1 -12 7 -30 10 -38 7 -32
-12 -15 -37 44 -67 65 -33 80 -52 80 -103 0 -77 -106 -115 -180 -64 -43 29
-47 42 -16 62 23 15 26 15 46 -5 28 -28 74 -24 78 7 3 18 -7 27 -53 48 -86 41
-109 103 -56 156 37 36 94 40 135 8z"/>
</g>
</svg>
